<svg id="visual" viewBox="0 0 900 600" width="900" height="600" xmlns="http://www.w3.org/2000/svg" xmlns:xlink="http://www.w3.org/1999/xlink" version="1.1"><g transform="translate(455.90211788177163 324.91141675270734)"><path d="M114.5 -154.8C174 -114.5 265.3 -115.2 295.6 -81.9C325.9 -48.6 295.1 18.6 257.5 68C220 117.4 175.5 148.9 131.4 183.1C87.4 217.3 43.7 254.1 5.1 247.1C-33.5 240.1 -67 189.2 -121.1 158.3C-175.1 127.4 -249.7 116.4 -288.1 75.4C-326.5 34.4 -328.7 -36.6 -301.1 -90.5C-273.5 -144.5 -216.1 -181.5 -161 -223.2C-105.8 -265 -52.9 -311.5 -12.7 -294C27.6 -276.6 55.1 -195.2 114.5 -154.8" fill="#3eb6ab"></path></g></svg>