<svg id="visual" viewBox="0 0 900 450" width="900" height="450" xmlns="http://www.w3.org/2000/svg" xmlns:xlink="http://www.w3.org/1999/xlink" version="1.1"><rect x="0" y="0" width="900" height="450" fill="none"></rect><g transform="translate(861.3895143571654 195.30335888179695)"><path d="M333.9 -386.3C453.9 -297.2 587 -212.1 622.9 -96.8C658.8 18.5 597.4 164 483.6 202.1C369.7 240.2 203.3 170.8 99.1 160.1C-5.1 149.4 -47.2 197.3 -53.4 180.4C-59.5 163.5 -29.8 81.8 -127 21.1C-224.2 -39.5 -448.4 -79.1 -524.5 -169.7C-600.5 -260.4 -528.5 -402.1 -416.4 -492.7C-304.3 -583.3 -152.1 -622.6 -22.6 -595.7C106.9 -568.8 213.8 -475.5 333.9 -386.3" fill="#d89217"></path></g></svg>
