<svg id="visual" viewBox="0 0 900 450" width="900" height="450" xmlns="http://www.w3.org/2000/svg" xmlns:xlink="http://www.w3.org/1999/xlink" version="1.1"><path d="M528 450L525.3 443.2C522.7 436.3 517.3 422.7 493.3 409C469.3 395.3 426.7 381.7 417.3 368C408 354.3 432 340.7 437.8 327C443.7 313.3 431.3 299.7 426.7 286C422 272.3 425 258.7 420.8 245.2C416.7 231.7 405.3 218.3 416.8 204.8C428.3 191.3 462.7 177.7 477.5 164C492.3 150.3 487.7 136.7 490 123C492.3 109.3 501.7 95.7 505.2 82C508.7 68.3 506.3 54.7 493.3 41C480.3 27.3 456.7 13.7 444.8 6.8L433 0L900 0L900 6.8C900 13.7 900 27.3 900 41C900 54.7 900 68.3 900 82C900 95.7 900 109.3 900 123C900 136.7 900 150.3 900 164C900 177.7 900 191.3 900 204.8C900 218.3 900 231.7 900 245.2C900 258.7 900 272.3 900 286C900 299.7 900 313.3 900 327C900 340.7 900 354.3 900 368C900 381.7 900 395.3 900 409C900 422.7 900 436.3 900 443.2L900 450Z" fill="#fa7268"></path><path d="M580 450L585.3 443.2C590.7 436.3 601.3 422.7 596.8 409C592.3 395.3 572.7 381.7 570.5 368C568.3 354.3 583.7 340.7 579.3 327C575 313.3 551 299.7 553.7 286C556.3 272.3 585.7 258.7 579.7 245.2C573.7 231.7 532.3 218.3 521.3 204.8C510.3 191.3 529.7 177.7 521.8 164C514 150.3 479 136.7 473.5 123C468 109.3 492 95.7 508.8 82C525.7 68.3 535.3 54.7 532.3 41C529.3 27.3 513.7 13.7 505.8 6.8L498 0L900 0L900 6.8C900 13.7 900 27.3 900 41C900 54.7 900 68.3 900 82C900 95.7 900 109.3 900 123C900 136.7 900 150.3 900 164C900 177.7 900 191.3 900 204.8C900 218.3 900 231.7 900 245.2C900 258.7 900 272.3 900 286C900 299.7 900 313.3 900 327C900 340.7 900 354.3 900 368C900 381.7 900 395.3 900 409C900 422.7 900 436.3 900 443.2L900 450Z" fill="#f36567"></path><path d="M612 450L608.2 443.2C604.3 436.3 596.7 422.7 583.7 409C570.7 395.3 552.3 381.7 554 368C555.7 354.3 577.3 340.7 592.3 327C607.3 313.3 615.7 299.7 601.8 286C588 272.3 552 258.7 550.8 245.2C549.7 231.7 583.3 218.3 595.2 204.8C607 191.3 597 177.7 584.7 164C572.3 150.3 557.7 136.7 556.3 123C555 109.3 567 95.7 563 82C559 68.3 539 54.7 536 41C533 27.3 547 13.7 554 6.8L561 0L900 0L900 6.8C900 13.7 900 27.3 900 41C900 54.7 900 68.3 900 82C900 95.7 900 109.3 900 123C900 136.7 900 150.3 900 164C900 177.7 900 191.3 900 204.8C900 218.3 900 231.7 900 245.2C900 258.7 900 272.3 900 286C900 299.7 900 313.3 900 327C900 340.7 900 354.3 900 368C900 381.7 900 395.3 900 409C900 422.7 900 436.3 900 443.2L900 450Z" fill="#eb5967"></path><path d="M582 450L589.5 443.2C597 436.3 612 422.7 627.7 409C643.3 395.3 659.7 381.7 653.3 368C647 354.3 618 340.7 609.3 327C600.7 313.3 612.3 299.7 618.7 286C625 272.3 626 258.7 633.2 245.2C640.3 231.7 653.7 218.3 647.2 204.8C640.7 191.3 614.3 177.7 614 164C613.7 150.3 639.3 136.7 652.8 123C666.3 109.3 667.7 95.7 659.2 82C650.7 68.3 632.3 54.7 623.2 41C614 27.3 614 13.7 614 6.8L614 0L900 0L900 6.8C900 13.7 900 27.3 900 41C900 54.7 900 68.3 900 82C900 95.7 900 109.3 900 123C900 136.7 900 150.3 900 164C900 177.7 900 191.3 900 204.8C900 218.3 900 231.7 900 245.2C900 258.7 900 272.3 900 286C900 299.7 900 313.3 900 327C900 340.7 900 354.3 900 368C900 381.7 900 395.3 900 409C900 422.7 900 436.3 900 443.2L900 450Z" fill="#e34c67"></path><path d="M683 450L692.8 443.2C702.7 436.3 722.3 422.7 728.7 409C735 395.3 728 381.7 713.7 368C699.3 354.3 677.7 340.7 665.3 327C653 313.3 650 299.7 653.2 286C656.3 272.3 665.7 258.7 675 245.2C684.3 231.7 693.7 218.3 698.5 204.8C703.3 191.3 703.7 177.7 705.2 164C706.7 150.3 709.3 136.7 708.8 123C708.3 109.3 704.7 95.7 694.7 82C684.7 68.3 668.3 54.7 672.2 41C676 27.3 700 13.7 712 6.8L724 0L900 0L900 6.8C900 13.7 900 27.3 900 41C900 54.7 900 68.3 900 82C900 95.7 900 109.3 900 123C900 136.7 900 150.3 900 164C900 177.7 900 191.3 900 204.8C900 218.3 900 231.7 900 245.2C900 258.7 900 272.3 900 286C900 299.7 900 313.3 900 327C900 340.7 900 354.3 900 368C900 381.7 900 395.3 900 409C900 422.7 900 436.3 900 443.2L900 450Z" fill="#da3f67"></path><path d="M757 450L755.3 443.2C753.7 436.3 750.3 422.7 758.5 409C766.7 395.3 786.3 381.7 786.7 368C787 354.3 768 340.7 758 327C748 313.3 747 299.7 749.7 286C752.3 272.3 758.7 258.7 759 245.2C759.3 231.7 753.7 218.3 761 204.8C768.3 191.3 788.7 177.7 798 164C807.3 150.3 805.7 136.7 793 123C780.3 109.3 756.7 95.7 753.3 82C750 68.3 767 54.7 779 41C791 27.3 798 13.7 801.5 6.8L805 0L900 0L900 6.8C900 13.7 900 27.3 900 41C900 54.7 900 68.3 900 82C900 95.7 900 109.3 900 123C900 136.7 900 150.3 900 164C900 177.7 900 191.3 900 204.8C900 218.3 900 231.7 900 245.2C900 258.7 900 272.3 900 286C900 299.7 900 313.3 900 327C900 340.7 900 354.3 900 368C900 381.7 900 395.3 900 409C900 422.7 900 436.3 900 443.2L900 450Z" fill="#d03267"></path><path d="M813 450L817.2 443.2C821.3 436.3 829.7 422.7 836.8 409C844 395.3 850 381.7 852.2 368C854.3 354.3 852.7 340.7 842.5 327C832.3 313.3 813.7 299.7 809.2 286C804.7 272.3 814.3 258.7 819.8 245.2C825.3 231.7 826.7 218.3 822.2 204.8C817.7 191.3 807.3 177.7 803.8 164C800.3 150.3 803.7 136.7 813.3 123C823 109.3 839 95.7 848 82C857 68.3 859 54.7 856.5 41C854 27.3 847 13.7 843.5 6.8L840 0L900 0L900 6.8C900 13.7 900 27.3 900 41C900 54.7 900 68.3 900 82C900 95.7 900 109.3 900 123C900 136.7 900 150.3 900 164C900 177.7 900 191.3 900 204.8C900 218.3 900 231.7 900 245.2C900 258.7 900 272.3 900 286C900 299.7 900 313.3 900 327C900 340.7 900 354.3 900 368C900 381.7 900 395.3 900 409C900 422.7 900 436.3 900 443.2L900 450Z" fill="#c62368"></path></svg>