<svg id="visual" viewBox="0 0 900 600" width="900" height="600" xmlns="http://www.w3.org/2000/svg" xmlns:xlink="http://www.w3.org/1999/xlink" version="1.1"><path d="M0 227L13.7 273.7C27.3 320.3 54.7 413.7 82 410C109.3 406.3 136.7 305.7 163.8 307.2C191 308.7 218 412.3 245.2 445.7C272.3 479 299.7 442 327 417.7C354.3 393.3 381.7 381.7 409 386.2C436.3 390.7 463.7 411.3 491 409.8C518.3 408.3 545.7 384.7 573 367.2C600.3 349.7 627.7 338.3 654.8 341.7C682 345 709 363 736.2 363.3C763.3 363.7 790.7 346.3 818 349.3C845.3 352.3 872.7 375.7 886.3 387.3L900 399L900 0L886.3 0C872.7 0 845.3 0 818 0C790.7 0 763.3 0 736.2 0C709 0 682 0 654.8 0C627.7 0 600.3 0 573 0C545.7 0 518.3 0 491 0C463.7 0 436.3 0 409 0C381.7 0 354.3 0 327 0C299.7 0 272.3 0 245.2 0C218 0 191 0 163.8 0C136.7 0 109.3 0 82 0C54.7 0 27.3 0 13.7 0L0 0Z" fill="#fa7268"></path><path d="M0 245L13.7 251.8C27.3 258.7 54.7 272.3 82 304.8C109.3 337.3 136.7 388.7 163.8 387C191 385.3 218 330.7 245.2 319.7C272.3 308.7 299.7 341.3 327 354.2C354.3 367 381.7 360 409 357.8C436.3 355.7 463.7 358.3 491 336C518.3 313.7 545.7 266.3 573 266C600.3 265.7 627.7 312.3 654.8 307.8C682 303.3 709 247.7 736.2 250.5C763.3 253.3 790.7 314.7 818 319.3C845.3 324 872.7 272 886.3 246L900 220L900 0L886.3 0C872.7 0 845.3 0 818 0C790.7 0 763.3 0 736.2 0C709 0 682 0 654.8 0C627.7 0 600.3 0 573 0C545.7 0 518.3 0 491 0C463.7 0 436.3 0 409 0C381.7 0 354.3 0 327 0C299.7 0 272.3 0 245.2 0C218 0 191 0 163.8 0C136.7 0 109.3 0 82 0C54.7 0 27.3 0 13.7 0L0 0Z" fill="#f36567"></path><path d="M0 201L13.7 214.7C27.3 228.3 54.7 255.7 82 285.2C109.3 314.7 136.7 346.3 163.8 334.2C191 322 218 266 245.2 250.8C272.3 235.7 299.7 261.3 327 281.7C354.3 302 381.7 317 409 295C436.3 273 463.7 214 491 193.7C518.3 173.3 545.7 191.7 573 206.2C600.3 220.7 627.7 231.3 654.8 231.3C682 231.3 709 220.7 736.2 229.2C763.3 237.7 790.7 265.3 818 290.8C845.3 316.3 872.7 339.7 886.3 351.3L900 363L900 0L886.3 0C872.7 0 845.3 0 818 0C790.7 0 763.3 0 736.2 0C709 0 682 0 654.8 0C627.7 0 600.3 0 573 0C545.7 0 518.3 0 491 0C463.7 0 436.3 0 409 0C381.7 0 354.3 0 327 0C299.7 0 272.3 0 245.2 0C218 0 191 0 163.8 0C136.7 0 109.3 0 82 0C54.7 0 27.3 0 13.7 0L0 0Z" fill="#eb5967"></path><path d="M0 121L13.7 130.5C27.3 140 54.7 159 82 181.2C109.3 203.3 136.7 228.7 163.8 249.3C191 270 218 286 245.2 285C272.3 284 299.7 266 327 238.2C354.3 210.3 381.7 172.7 409 153.3C436.3 134 463.7 133 491 164C518.3 195 545.7 258 573 276.7C600.3 295.3 627.7 269.7 654.8 255.7C682 241.7 709 239.3 736.2 236.3C763.3 233.3 790.7 229.7 818 228.2C845.3 226.7 872.7 227.3 886.3 227.7L900 228L900 0L886.3 0C872.7 0 845.3 0 818 0C790.7 0 763.3 0 736.2 0C709 0 682 0 654.8 0C627.7 0 600.3 0 573 0C545.7 0 518.3 0 491 0C463.7 0 436.3 0 409 0C381.7 0 354.3 0 327 0C299.7 0 272.3 0 245.2 0C218 0 191 0 163.8 0C136.7 0 109.3 0 82 0C54.7 0 27.3 0 13.7 0L0 0Z" fill="#e34c67"></path><path d="M0 201L13.7 183.8C27.3 166.7 54.7 132.3 82 113.8C109.3 95.3 136.7 92.7 163.8 114.8C191 137 218 184 245.2 200.2C272.3 216.3 299.7 201.7 327 183.7C354.3 165.7 381.7 144.3 409 147.3C436.3 150.3 463.7 177.7 491 195C518.3 212.3 545.7 219.7 573 202C600.3 184.3 627.7 141.7 654.8 133.3C682 125 709 151 736.2 151.3C763.3 151.7 790.7 126.3 818 129.2C845.3 132 872.7 163 886.3 178.5L900 194L900 0L886.3 0C872.7 0 845.3 0 818 0C790.7 0 763.3 0 736.2 0C709 0 682 0 654.8 0C627.7 0 600.3 0 573 0C545.7 0 518.3 0 491 0C463.7 0 436.3 0 409 0C381.7 0 354.3 0 327 0C299.7 0 272.3 0 245.2 0C218 0 191 0 163.8 0C136.7 0 109.3 0 82 0C54.7 0 27.3 0 13.7 0L0 0Z" fill="#da3f67"></path><path d="M0 139L13.7 128.5C27.3 118 54.7 97 82 101.3C109.3 105.7 136.7 135.3 163.8 132.7C191 130 218 95 245.2 90.8C272.3 86.7 299.7 113.3 327 119C354.3 124.7 381.7 109.3 409 97.7C436.3 86 463.7 78 491 85.8C518.3 93.7 545.7 117.3 573 115.7C600.3 114 627.7 87 654.8 95.3C682 103.7 709 147.3 736.2 156C763.3 164.7 790.7 138.3 818 126.2C845.3 114 872.7 116 886.3 117L900 118L900 0L886.3 0C872.7 0 845.3 0 818 0C790.7 0 763.3 0 736.2 0C709 0 682 0 654.8 0C627.7 0 600.3 0 573 0C545.7 0 518.3 0 491 0C463.7 0 436.3 0 409 0C381.7 0 354.3 0 327 0C299.7 0 272.3 0 245.2 0C218 0 191 0 163.8 0C136.7 0 109.3 0 82 0C54.7 0 27.3 0 13.7 0L0 0Z" fill="#d03267"></path><path d="M0 40L13.7 41.8C27.3 43.7 54.7 47.3 82 53.7C109.3 60 136.7 69 163.8 71.7C191 74.3 218 70.7 245.2 66.8C272.3 63 299.7 59 327 60.2C354.3 61.3 381.7 67.7 409 79.2C436.3 90.7 463.7 107.3 491 112.8C518.3 118.3 545.7 112.7 573 99.2C600.3 85.7 627.7 64.3 654.8 57.3C682 50.3 709 57.7 736.2 60.2C763.3 62.7 790.7 60.3 818 68.2C845.3 76 872.7 94 886.3 103L900 112L900 0L886.3 0C872.7 0 845.3 0 818 0C790.7 0 763.3 0 736.2 0C709 0 682 0 654.8 0C627.7 0 600.3 0 573 0C545.7 0 518.3 0 491 0C463.7 0 436.3 0 409 0C381.7 0 354.3 0 327 0C299.7 0 272.3 0 245.2 0C218 0 191 0 163.8 0C136.7 0 109.3 0 82 0C54.7 0 27.3 0 13.7 0L0 0Z" fill="#c62368"></path></svg>