<svg id="visual" viewBox="0 0 900 600" width="900" height="600" xmlns="http://www.w3.org/2000/svg" xmlns:xlink="http://www.w3.org/1999/xlink" version="1.1"><path d="M0 163L8.8 157.3C17.7 151.7 35.3 140.3 53 122.7C70.7 105 88.3 81 106 96.5C123.7 112 141.3 167 159 179.7C176.7 192.3 194.3 162.7 212 143.7C229.7 124.7 247.3 116.3 265 126.7C282.7 137 300.3 166 318 165.8C335.7 165.7 353.3 136.3 371 125C388.7 113.7 406.3 120.3 423.8 112.7C441.3 105 458.7 83 476.2 100.2C493.7 117.3 511.3 173.7 529 174C546.7 174.3 564.3 118.7 582 104.7C599.7 90.7 617.3 118.3 635 145.3C652.7 172.3 670.3 198.7 688 189.8C705.7 181 723.3 137 741 115.5C758.7 94 776.3 95 794 96C811.7 97 829.3 98 847 102.2C864.7 106.3 882.3 113.7 891.2 117.3L900 121L900 0L891.2 0C882.3 0 864.7 0 847 0C829.3 0 811.7 0 794 0C776.3 0 758.7 0 741 0C723.3 0 705.7 0 688 0C670.3 0 652.7 0 635 0C617.3 0 599.7 0 582 0C564.3 0 546.7 0 529 0C511.3 0 493.7 0 476.2 0C458.7 0 441.3 0 423.8 0C406.3 0 388.7 0 371 0C353.3 0 335.7 0 318 0C300.3 0 282.7 0 265 0C247.3 0 229.7 0 212 0C194.3 0 176.7 0 159 0C141.3 0 123.7 0 106 0C88.3 0 70.7 0 53 0C35.3 0 17.7 0 8.8 0L0 0Z" fill="#0066FF" stroke-linecap="round" stroke-linejoin="miter"></path></svg>