<svg id="visual" viewBox="0 0 900 600" width="900" height="600" xmlns="http://www.w3.org/2000/svg" xmlns:xlink="http://www.w3.org/1999/xlink" version="1.1"><path d="M136 0L133.7 5.8C131.3 11.7 126.7 23.3 125.2 35.2C123.7 47 125.3 59 129.8 70.8C134.3 82.7 141.7 94.3 140.7 106C139.7 117.7 130.3 129.3 125.5 141C120.7 152.7 120.3 164.3 118.2 176.2C116 188 112 200 113.5 211.8C115 223.7 122 235.3 122.3 247C122.7 258.7 116.3 270.3 120.2 282.2C124 294 138 306 137.5 317.8C137 329.7 122 341.3 114.8 353C107.7 364.7 108.3 376.3 115.7 388.2C123 400 137 412 142.3 423.8C147.7 435.7 144.3 447.3 136.7 459C129 470.7 117 482.3 118.7 494C120.3 505.7 135.7 517.3 136.8 529.2C138 541 125 553 123.8 564.8C122.7 576.7 133.3 588.3 138.7 594.2L144 600L0 600L0 594.2C0 588.3 0 576.7 0 564.8C0 553 0 541 0 529.2C0 517.3 0 505.7 0 494C0 482.3 0 470.7 0 459C0 447.3 0 435.7 0 423.8C0 412 0 400 0 388.2C0 376.3 0 364.7 0 353C0 341.3 0 329.7 0 317.8C0 306 0 294 0 282.2C0 270.3 0 258.7 0 247C0 235.3 0 223.7 0 211.8C0 200 0 188 0 176.2C0 164.3 0 152.7 0 141C0 129.3 0 117.7 0 106C0 94.3 0 82.7 0 70.8C0 59 0 47 0 35.2C0 23.3 0 11.7 0 5.8L0 0Z" fill="#f7770f"></path><path d="M95 0L100.7 5.8C106.3 11.7 117.7 23.3 124 35.2C130.3 47 131.7 59 132.3 70.8C133 82.7 133 94.3 128.8 106C124.7 117.7 116.3 129.3 110.5 141C104.7 152.7 101.3 164.3 105.5 176.2C109.7 188 121.3 200 124.5 211.8C127.7 223.7 122.3 235.3 119 247C115.7 258.7 114.3 270.3 111.7 282.2C109 294 105 306 102.2 317.8C99.3 329.7 97.7 341.3 95.8 353C94 364.7 92 376.3 91.3 388.2C90.7 400 91.3 412 94.3 423.8C97.3 435.7 102.7 447.3 109 459C115.3 470.7 122.7 482.3 123.3 494C124 505.7 118 517.3 118.2 529.2C118.3 541 124.7 553 124.2 564.8C123.7 576.7 116.3 588.3 112.7 594.2L109 600L0 600L0 594.2C0 588.3 0 576.7 0 564.8C0 553 0 541 0 529.2C0 517.3 0 505.7 0 494C0 482.3 0 470.7 0 459C0 447.3 0 435.7 0 423.8C0 412 0 400 0 388.2C0 376.3 0 364.7 0 353C0 341.3 0 329.7 0 317.8C0 306 0 294 0 282.2C0 270.3 0 258.7 0 247C0 235.3 0 223.7 0 211.8C0 200 0 188 0 176.2C0 164.3 0 152.7 0 141C0 129.3 0 117.7 0 106C0 94.3 0 82.7 0 70.8C0 59 0 47 0 35.2C0 23.3 0 11.7 0 5.8L0 0Z" fill="#d26714"></path><path d="M98 0L98.3 5.8C98.7 11.7 99.3 23.3 101.3 35.2C103.3 47 106.7 59 104.8 70.8C103 82.7 96 94.3 96 106C96 117.7 103 129.3 102.5 141C102 152.7 94 164.3 91.2 176.2C88.3 188 90.7 200 93.8 211.8C97 223.7 101 235.3 100.7 247C100.3 258.7 95.7 270.3 92.2 282.2C88.7 294 86.3 306 85 317.8C83.7 329.7 83.3 341.3 85.3 353C87.3 364.7 91.7 376.3 93.7 388.2C95.7 400 95.3 412 94.2 423.8C93 435.7 91 447.3 94.7 459C98.3 470.7 107.7 482.3 110 494C112.3 505.7 107.7 517.3 106.2 529.2C104.7 541 106.3 553 102.3 564.8C98.3 576.7 88.7 588.3 83.8 594.2L79 600L0 600L0 594.2C0 588.3 0 576.7 0 564.8C0 553 0 541 0 529.2C0 517.3 0 505.7 0 494C0 482.3 0 470.7 0 459C0 447.3 0 435.7 0 423.8C0 412 0 400 0 388.2C0 376.3 0 364.7 0 353C0 341.3 0 329.7 0 317.8C0 306 0 294 0 282.2C0 270.3 0 258.7 0 247C0 235.3 0 223.7 0 211.8C0 200 0 188 0 176.2C0 164.3 0 152.7 0 141C0 129.3 0 117.7 0 106C0 94.3 0 82.7 0 70.8C0 59 0 47 0 35.2C0 23.3 0 11.7 0 5.8L0 0Z" fill="#ae5717"></path><path d="M85 0L84.5 5.8C84 11.7 83 23.3 82.8 35.2C82.7 47 83.3 59 81.7 70.8C80 82.7 76 94.3 78.7 106C81.3 117.7 90.7 129.3 94.2 141C97.7 152.7 95.3 164.3 94.3 176.2C93.3 188 93.7 200 94.2 211.8C94.7 223.7 95.3 235.3 94.7 247C94 258.7 92 270.3 89.5 282.2C87 294 84 306 82.8 317.8C81.7 329.7 82.3 341.3 83.2 353C84 364.7 85 376.3 85.8 388.2C86.7 400 87.3 412 86.2 423.8C85 435.7 82 447.3 83.5 459C85 470.7 91 482.3 91 494C91 505.7 85 517.3 81.5 529.2C78 541 77 553 77.2 564.8C77.3 576.7 78.7 588.3 79.3 594.2L80 600L0 600L0 594.2C0 588.3 0 576.7 0 564.8C0 553 0 541 0 529.2C0 517.3 0 505.7 0 494C0 482.3 0 470.7 0 459C0 447.3 0 435.7 0 423.8C0 412 0 400 0 388.2C0 376.3 0 364.7 0 353C0 341.3 0 329.7 0 317.8C0 306 0 294 0 282.2C0 270.3 0 258.7 0 247C0 235.3 0 223.7 0 211.8C0 200 0 188 0 176.2C0 164.3 0 152.7 0 141C0 129.3 0 117.7 0 106C0 94.3 0 82.7 0 70.8C0 59 0 47 0 35.2C0 23.3 0 11.7 0 5.8L0 0Z" fill="#8b4817"></path><path d="M83 0L81.8 5.8C80.7 11.7 78.3 23.3 78 35.2C77.7 47 79.3 59 75.8 70.8C72.3 82.7 63.7 94.3 62.7 106C61.7 117.7 68.3 129.3 69.8 141C71.3 152.7 67.7 164.3 69 176.2C70.3 188 76.7 200 76.3 211.8C76 223.7 69 235.3 64.5 247C60 258.7 58 270.3 61.5 282.2C65 294 74 306 76.7 317.8C79.3 329.7 75.7 341.3 73.7 353C71.7 364.7 71.3 376.3 69.8 388.2C68.3 400 65.7 412 66.5 423.8C67.3 435.7 71.7 447.3 70.3 459C69 470.7 62 482.3 60.5 494C59 505.7 63 517.3 64.7 529.2C66.3 541 65.7 553 68.2 564.8C70.7 576.7 76.3 588.3 79.2 594.2L82 600L0 600L0 594.2C0 588.3 0 576.7 0 564.8C0 553 0 541 0 529.2C0 517.3 0 505.7 0 494C0 482.3 0 470.7 0 459C0 447.3 0 435.7 0 423.8C0 412 0 400 0 388.2C0 376.3 0 364.7 0 353C0 341.3 0 329.7 0 317.8C0 306 0 294 0 282.2C0 270.3 0 258.7 0 247C0 235.3 0 223.7 0 211.8C0 200 0 188 0 176.2C0 164.3 0 152.7 0 141C0 129.3 0 117.7 0 106C0 94.3 0 82.7 0 70.8C0 59 0 47 0 35.2C0 23.3 0 11.7 0 5.8L0 0Z" fill="#6a3917"></path><path d="M62 0L59.7 5.8C57.3 11.7 52.7 23.3 49.8 35.2C47 47 46 59 45 70.8C44 82.7 43 94.3 42.3 106C41.7 117.7 41.3 129.3 44.3 141C47.3 152.7 53.7 164.3 55.8 176.2C58 188 56 200 55.3 211.8C54.7 223.7 55.3 235.3 57 247C58.7 258.7 61.3 270.3 58.7 282.2C56 294 48 306 44.2 317.8C40.3 329.7 40.7 341.3 43.8 353C47 364.7 53 376.3 53.2 388.2C53.3 400 47.7 412 47 423.8C46.3 435.7 50.7 447.3 49.8 459C49 470.7 43 482.3 44.3 494C45.7 505.7 54.3 517.3 56 529.2C57.7 541 52.3 553 48.5 564.8C44.7 576.7 42.3 588.3 41.2 594.2L40 600L0 600L0 594.2C0 588.3 0 576.7 0 564.8C0 553 0 541 0 529.2C0 517.3 0 505.7 0 494C0 482.3 0 470.7 0 459C0 447.3 0 435.7 0 423.8C0 412 0 400 0 388.2C0 376.3 0 364.7 0 353C0 341.3 0 329.7 0 317.8C0 306 0 294 0 282.2C0 270.3 0 258.7 0 247C0 235.3 0 223.7 0 211.8C0 200 0 188 0 176.2C0 164.3 0 152.7 0 141C0 129.3 0 117.7 0 106C0 94.3 0 82.7 0 70.8C0 59 0 47 0 35.2C0 23.3 0 11.7 0 5.8L0 0Z" fill="#4a2a15"></path><path d="M33 0L33.5 5.8C34 11.7 35 23.3 36.3 35.2C37.7 47 39.3 59 39.7 70.8C40 82.7 39 94.3 38.5 106C38 117.7 38 129.3 35.7 141C33.3 152.7 28.7 164.3 28 176.2C27.3 188 30.7 200 33.5 211.8C36.3 223.7 38.7 235.3 38 247C37.3 258.7 33.7 270.3 32 282.2C30.3 294 30.7 306 30 317.8C29.3 329.7 27.7 341.3 26.7 353C25.7 364.7 25.3 376.3 26 388.2C26.7 400 28.3 412 30.3 423.8C32.3 435.7 34.7 447.3 35.7 459C36.7 470.7 36.3 482.3 34.3 494C32.3 505.7 28.7 517.3 28.3 529.2C28 541 31 553 32 564.8C33 576.7 32 588.3 31.5 594.2L31 600L0 600L0 594.2C0 588.3 0 576.7 0 564.8C0 553 0 541 0 529.2C0 517.3 0 505.7 0 494C0 482.3 0 470.7 0 459C0 447.3 0 435.7 0 423.8C0 412 0 400 0 388.2C0 376.3 0 364.7 0 353C0 341.3 0 329.7 0 317.8C0 306 0 294 0 282.2C0 270.3 0 258.7 0 247C0 235.3 0 223.7 0 211.8C0 200 0 188 0 176.2C0 164.3 0 152.7 0 141C0 129.3 0 117.7 0 106C0 94.3 0 82.7 0 70.8C0 59 0 47 0 35.2C0 23.3 0 11.7 0 5.8L0 0Z" fill="#2c1c12"></path><path d="M31 0L28.8 5.8C26.7 11.7 22.3 23.3 21.5 35.2C20.7 47 23.3 59 22.8 70.8C22.3 82.7 18.7 94.3 17.7 106C16.7 117.7 18.3 129.3 18.2 141C18 152.7 16 164.3 17 176.2C18 188 22 200 22.2 211.8C22.3 223.7 18.7 235.3 17.2 247C15.7 258.7 16.3 270.3 15.7 282.2C15 294 13 306 14.2 317.8C15.3 329.7 19.7 341.3 20.5 353C21.3 364.7 18.7 376.3 19.2 388.2C19.7 400 23.3 412 22.5 423.8C21.7 435.7 16.3 447.3 14.8 459C13.3 470.7 15.7 482.3 17.3 494C19 505.7 20 517.3 21.5 529.2C23 541 25 553 26.2 564.8C27.3 576.7 27.7 588.3 27.8 594.2L28 600L0 600L0 594.2C0 588.3 0 576.7 0 564.8C0 553 0 541 0 529.2C0 517.3 0 505.7 0 494C0 482.3 0 470.7 0 459C0 447.3 0 435.7 0 423.8C0 412 0 400 0 388.2C0 376.3 0 364.7 0 353C0 341.3 0 329.7 0 317.8C0 306 0 294 0 282.2C0 270.3 0 258.7 0 247C0 235.3 0 223.7 0 211.8C0 200 0 188 0 176.2C0 164.3 0 152.7 0 141C0 129.3 0 117.7 0 106C0 94.3 0 82.7 0 70.8C0 59 0 47 0 35.2C0 23.3 0 11.7 0 5.8L0 0Z" fill="#0c0c0c"></path></svg>