<svg id="visual" viewBox="0 0 900 600" width="900" height="600" xmlns="http://www.w3.org/2000/svg" xmlns:xlink="http://www.w3.org/1999/xlink" version="1.1"><path d="M174 0L168 8.3C162 16.7 150 33.3 149 50C148 66.7 158 83.3 160.2 100C162.3 116.7 156.7 133.3 162.3 150C168 166.7 185 183.3 179.7 200C174.3 216.7 146.7 233.3 133 250C119.3 266.7 119.7 283.3 133.7 300C147.7 316.7 175.3 333.3 177 350C178.7 366.7 154.3 383.3 154.3 400C154.3 416.7 178.7 433.3 185.8 450C193 466.7 183 483.3 181.8 500C180.7 516.7 188.3 533.3 188.7 550C189 566.7 182 583.3 178.5 591.7L175 600L0 600L0 591.7C0 583.3 0 566.7 0 550C0 533.3 0 516.7 0 500C0 483.3 0 466.7 0 450C0 433.3 0 416.7 0 400C0 383.3 0 366.7 0 350C0 333.3 0 316.7 0 300C0 283.3 0 266.7 0 250C0 233.3 0 216.7 0 200C0 183.3 0 166.7 0 150C0 133.3 0 116.7 0 100C0 83.3 0 66.7 0 50C0 33.3 0 16.7 0 8.3L0 0Z" fill="#42b883"></path><path d="M118 0L115 8.3C112 16.7 106 33.3 100.5 50C95 66.7 90 83.3 91.2 100C92.3 116.7 99.7 133.3 107.5 150C115.3 166.7 123.7 183.3 122.5 200C121.3 216.7 110.7 233.3 115.2 250C119.7 266.7 139.3 283.3 138 300C136.7 316.7 114.3 333.3 112.8 350C111.3 366.7 130.7 383.3 137 400C143.3 416.7 136.7 433.3 134.2 450C131.7 466.7 133.3 483.3 137.8 500C142.3 516.7 149.7 533.3 150.3 550C151 566.7 145 583.3 142 591.7L139 600L0 600L0 591.7C0 583.3 0 566.7 0 550C0 533.3 0 516.7 0 500C0 483.3 0 466.7 0 450C0 433.3 0 416.7 0 400C0 383.3 0 366.7 0 350C0 333.3 0 316.7 0 300C0 283.3 0 266.7 0 250C0 233.3 0 216.7 0 200C0 183.3 0 166.7 0 150C0 133.3 0 116.7 0 100C0 83.3 0 66.7 0 50C0 33.3 0 16.7 0 8.3L0 0Z" fill="#00818f"></path><path d="M77 0L70.5 8.3C64 16.7 51 33.3 44.3 50C37.7 66.7 37.3 83.3 47.7 100C58 116.7 79 133.3 88.2 150C97.3 166.7 94.7 183.3 88 200C81.3 216.7 70.7 233.3 70.3 250C70 266.7 80 283.3 79 300C78 316.7 66 333.3 65.3 350C64.7 366.7 75.3 383.3 76 400C76.7 416.7 67.3 433.3 68.3 450C69.3 466.7 80.7 483.3 78 500C75.3 516.7 58.7 533.3 49.7 550C40.7 566.7 39.3 583.3 38.7 591.7L38 600L0 600L0 591.7C0 583.3 0 566.7 0 550C0 533.3 0 516.7 0 500C0 483.3 0 466.7 0 450C0 433.3 0 416.7 0 400C0 383.3 0 366.7 0 350C0 333.3 0 316.7 0 300C0 283.3 0 266.7 0 250C0 233.3 0 216.7 0 200C0 183.3 0 166.7 0 150C0 133.3 0 116.7 0 100C0 83.3 0 66.7 0 50C0 33.3 0 16.7 0 8.3L0 0Z" fill="#35495e"></path></svg>